<svg width="40" height="40" viewBox="0 0 40 40" fill="none" xmlns="http://www.w3.org/2000/svg">
<path d="M38 18.6667H32V3.33333C31.9978 1.49316 30.5069 0.00227865 28.6667 0H6.66671C5.19405 0 4.00004 1.19401 4.00004 2.66667V10.6667H2.00004C1.63188 10.6667 1.33337 10.9652 1.33337 11.3333V15.3333C1.33337 15.7015 1.63188 16 2.00004 16H4.00004V23.3333C4.00004 23.7015 4.29854 24 4.66671 24H8.00004V37.3333C8.00004 38.806 9.19405 40 10.6667 40H32.6667C34.1394 40 35.3334 38.806 35.3334 37.3333C35.3334 35.8607 34.1394 34.6667 32.6667 34.6667H32V24H38C38.3682 24 38.6667 23.7015 38.6667 23.3333V19.3333C38.6667 18.9652 38.3682 18.6667 38 18.6667ZM5.33337 2.66667C5.33337 1.93034 5.93038 1.33333 6.66671 1.33333C7.40304 1.33333 8.00004 1.93034 8.00004 2.66667V10.6667H5.33337V2.66667ZM2.66671 12H21.3334C21.6687 12 21.9519 11.7513 21.9948 11.4186L24.292 13.3333L21.9948 15.248C21.9519 14.9154 21.6687 14.6667 21.3334 14.6667H2.66671V12ZM5.33337 22.6667V16H8.00004V22.6667H5.33337ZM34 37.3333C34 38.0697 33.403 38.6667 32.6667 38.6667H12.9753C13.2107 38.2617 13.334 37.8018 13.3334 37.3333V36H32.6667C33.403 36 34 36.597 34 37.3333ZM30.6667 34.6667H12.6667C12.2985 34.6667 12 34.9652 12 35.3333V37.3333C12 38.0697 11.403 38.6667 10.6667 38.6667C9.93038 38.6667 9.33337 38.0697 9.33337 37.3333V16H20.6667V16.6667C20.6667 16.9255 20.8164 17.1611 21.0508 17.2708C21.2852 17.3805 21.5619 17.3447 21.7608 17.1787L25.7608 13.8454C25.9125 13.7188 26.0004 13.5313 26.0004 13.3333C26.0004 13.1354 25.9125 12.9479 25.7608 12.8213L21.7608 9.48796C21.5619 9.32194 21.2852 9.28613 21.0508 9.39583C20.8164 9.50553 20.6667 9.74121 20.6667 10V10.6667H9.33337V2.66667C9.33109 2.19727 9.20349 1.73698 8.96391 1.33333H28.6667C29.7712 1.33333 30.6667 2.22884 30.6667 3.33333V18.6667H19.3334V18C19.3334 17.7412 19.1836 17.5055 18.9493 17.3958C18.7149 17.2861 18.4382 17.3219 18.2393 17.488L14.2393 20.8213C14.0876 20.9479 13.9997 21.1354 13.9997 21.3333C13.9997 21.5313 14.0876 21.7188 14.2393 21.8454L18.2393 25.1787C18.4382 25.3447 18.7149 25.3805 18.9493 25.2708C19.1836 25.1611 19.3334 24.9255 19.3334 24.6667V24H30.6667V34.6667ZM37.3334 22.6667H18.6667C18.5808 22.667 18.4958 22.6842 18.4167 22.7174C18.3923 22.7301 18.3689 22.7445 18.3461 22.7601C18.2982 22.7848 18.2533 22.8151 18.2126 22.8506C18.1911 22.8747 18.1713 22.9001 18.1534 22.9268C18.1208 22.9642 18.0931 23.0052 18.07 23.0495C18.057 23.0807 18.0469 23.1133 18.0394 23.1468C18.0254 23.1794 18.0144 23.2132 18.0066 23.248L15.708 21.3333L18.0052 19.4186C18.0131 19.4535 18.0241 19.4873 18.0381 19.5199C18.0453 19.5534 18.0557 19.5859 18.0687 19.6172C18.0915 19.6615 18.1195 19.7025 18.1521 19.7399C18.17 19.7666 18.1898 19.792 18.2113 19.8161C18.252 19.8516 18.2969 19.8818 18.3448 19.9066C18.3676 19.9222 18.391 19.9365 18.4154 19.9492C18.4948 19.9827 18.5804 20 18.6667 20H37.3334V22.6667Z" fill="#00E016"/>
<path d="M12 4H18.6667V5.33333H12V4Z" fill="#00E016"/>
<path d="M12 6.66663H18.6667V7.99996H12V6.66663Z" fill="#00E016"/>
<path d="M14.6666 29.3334H28V30.6667H14.6666V29.3334Z" fill="#00E016"/>
<path d="M14.6666 32H28V33.3333H14.6666V32Z" fill="#00E016"/>
<path d="M24 26.6666H28V28H24V26.6666Z" fill="#00E016"/>
</svg>
